<?xml version="1.0" encoding="utf-8"?>
<!-- Generator: Adobe Illustrator 17.0.0, SVG Export Plug-In . SVG Version: 6.00 Build 0)  -->
<!DOCTYPE svg PUBLIC "-//W3C//DTD SVG 1.1//EN" "http://www.w3.org/Graphics/SVG/1.1/DTD/svg11.dtd">
<svg version="1.1" id="Layer_1" xmlns="http://www.w3.org/2000/svg" xmlns:xlink="http://www.w3.org/1999/xlink" x="0px" y="0px"
	 width="360px" height="181.879px" viewBox="0 0 360 181.879" enable-background="new 0 0 360 181.879" xml:space="preserve">
<path fill="none" stroke="#878787" stroke-width="18" stroke-miterlimit="10" d="M121.053,72.979
	c0,24.838-20.145,44.982-44.994,44.982c-24.844,0-44.982-20.145-44.982-44.982c0-24.85,20.139-44.994,44.982-44.994
	C100.908,27.985,121.053,48.129,121.053,72.979z"/>
<polyline fill="none" stroke="#000000" stroke-width="9" stroke-miterlimit="10" points="131.635,31.781 214.932,31.781 
	214.932,121.535 "/>
<line fill="none" stroke="#000000" stroke-width="9" stroke-miterlimit="10" x1="286.826" y1="11.051" x2="286.826" y2="31.078"/>
<line fill="none" stroke="#000000" stroke-width="9" stroke-miterlimit="10" x1="236.43" y1="33.598" x2="337.217" y2="33.598"/>
<path fill="none" stroke="#000000" stroke-width="9" stroke-miterlimit="10" d="M323.471,81.123c0,20.238-16.412,36.65-36.656,36.65
	c-20.227,0-36.639-16.412-36.639-36.65c0-20.232,16.412-36.645,36.639-36.645C307.059,44.479,323.471,60.891,323.471,81.123z"/>
<text transform="matrix(1 0 0 1 26.4948 166.8401)" stroke="#000000" stroke-miterlimit="10" font-family="'Neou-Bold'" font-size="20.4988" letter-spacing="4">KYOUNGHEE LEe design.</text>
</svg>
